<svg width="19" height="20" viewBox="0 0 19 20" fill="none" xmlns="http://www.w3.org/2000/svg">
<path d="M1.5 7H17.5M13.5 1V3M5.5 1V3M4.7002 3H14.3002C15.4203 3 15.98 3 16.4078 3.21799C16.7841 3.40973 17.0905 3.71572 17.2822 4.09204C17.5002 4.51986 17.5 5.07985 17.5 6.19995V15.8C17.5 16.9201 17.5002 17.4802 17.2822 17.908C17.0905 18.2844 16.7841 18.5902 16.4078 18.782C15.98 19 15.4203 19 14.3002 19H4.7002C3.58009 19 3.01962 19 2.5918 18.782C2.21547 18.5902 1.90973 18.2844 1.71799 17.908C1.5 17.4802 1.5 16.9201 1.5 15.8V6.19995C1.5 5.07985 1.5 4.51986 1.71799 4.09204C1.90973 3.71572 2.21547 3.40973 2.5918 3.21799C3.01962 3 3.58009 3 4.7002 3Z" stroke="white" stroke-width="2" stroke-linecap="round" stroke-linejoin="round"/>
</svg>
