<svg width="50" height="50" viewBox="0 0 50 50" fill="none" xmlns="http://www.w3.org/2000/svg">
<rect x="0.5" y="0.5" width="49" height="49" rx="9.5" stroke="#E9EBEB"/>
<line x1="5.17101" y1="22.2897" x2="41.8549" y2="35.6415" stroke="white"/>
<line x1="7.56115" y1="17.444" x2="44.245" y2="30.7958" stroke="white"/>
<line x1="9.07482" y1="12.5302" x2="45.7587" y2="25.882" stroke="white"/>
<path d="M28.2 8.3C27.275 7.5 26.075 7 24.75 7C22.425 7 20.46 8.515 19.77 10.61L20.95 11C21.2132 10.1999 21.7223 9.50333 22.4046 9.00953C23.087 8.51574 23.9078 8.24993 24.75 8.25C25.725 8.25 26.615 8.61 27.31 9.19L25.5 11H30V6.5L28.2 8.3Z" fill="#E9EBEB"/>
<path d="M27.2 40.7C26.275 41.5 25.075 42 23.75 42C21.425 42 19.46 40.485 18.77 38.39L19.95 38C20.2132 38.8001 20.7223 39.4967 21.4046 39.9905C22.087 40.4843 22.9078 40.7501 23.75 40.75C24.725 40.75 25.615 40.39 26.31 39.81L24.5 38H29V42.5L27.2 40.7Z" fill="#E9EBEB"/>
</svg>
