<svg width="50" height="50" viewBox="0 0 50 50" fill="none" xmlns="http://www.w3.org/2000/svg">
<rect x="0.5" y="0.5" width="49" height="49" rx="9.5" stroke="#E9EBEB"/>
<path d="M28.1812 10.5175C28.1812 8.26856 26.3786 6 22.3514 6C18.8052 6 16.421 7.81531 16.421 10.5175C16.421 12.0946 17.0592 12.8138 17.4812 13.2902C17.7044 13.5411 17.7946 13.6544 17.7946 13.7677C17.7946 13.955 17.7946 14.0683 17.1494 14.0938H10.0986C7.38719 14.0938 5.00763 16.2548 5.00763 18.7188V23.0339C5.05156 24.1254 5.66784 24.8041 6.61713 24.8041C7.15709 24.8041 7.55716 24.4954 7.94566 24.1959C8.46597 23.797 9.0545 23.3438 10.2108 23.3438C12.1718 23.3438 14.2576 24.9648 14.2576 27.9688C14.2576 31.0085 12.144 33.1279 10.2466 33.1279C9.10191 33.1279 8.50297 32.6319 7.97341 32.1948C7.57681 31.8665 7.1675 31.5265 6.61597 31.5265C5.66784 31.5265 5.05041 32.2052 5.00647 33.3199V38.0628C5.00763 40.647 7.43459 43 10.0986 43H17.1852C18.2582 42.9561 18.9508 42.3236 18.9508 41.3859C18.9508 40.8228 18.6306 40.4609 18.3473 40.1418C17.968 39.7151 17.5772 39.2746 17.5772 38.1368C17.5772 36.0949 19.4318 34.7756 22.3005 34.7756C25.1703 34.7756 27.0249 36.0949 27.0249 38.1368C27.0249 39.2746 26.633 39.7151 26.2549 40.1418C25.9716 40.4609 25.6502 40.8228 25.6502 41.3859C25.6502 42.3363 26.3266 42.9538 27.44 42.9988L31.9968 43C34.4851 43 36.2241 41.061 36.2241 38.2848V32.9082C36.2541 32.7672 36.6102 32.2284 37.1537 32.2284C37.2647 32.2284 37.3768 32.3197 37.6266 32.5417C38.1007 32.9661 38.8187 33.6078 40.3935 33.6078C42.9187 33.6066 45.4764 31.6711 45.4764 27.9688C45.4764 23.9751 43.1535 22.1875 40.8514 22.1875C39.2974 22.1875 38.4001 22.8974 37.8058 23.3669C37.5422 23.575 37.2947 23.7716 37.1537 23.7716C36.6091 23.7716 36.253 23.2304 36.2264 23.1113L36.2241 23.0836V18.9408C36.2241 16.1322 34.4457 14.0938 31.9968 14.0938H27.4632L27.4169 14.0903C26.8064 14.0672 26.8064 13.955 26.8064 13.7677C26.8064 13.6544 26.8966 13.5422 27.1197 13.2902C27.5418 12.8149 28.1812 12.0946 28.1812 10.5175ZM26.2549 12.5236C25.9716 12.8427 25.6502 13.2057 25.6502 13.7688C25.6502 14.4048 25.9404 15.1702 27.351 15.2454L27.4319 15.25H31.9968C34.0133 15.25 35.0701 17.1069 35.0701 18.9408V23.1414C35.0701 23.183 35.062 23.2235 35.0701 23.2628C35.1765 23.9693 36.0437 24.9267 37.1537 24.9267C37.6971 24.9267 38.0972 24.6098 38.5238 24.2734C39.0742 23.8375 39.6997 23.3438 40.8514 23.3438C42.9581 23.3438 44.3201 25.1591 44.3201 27.9688C44.3201 31.049 42.284 32.4504 40.3935 32.4504C39.2615 32.4504 38.8222 32.0584 38.3967 31.6792C38.0775 31.3947 37.7156 31.0721 37.1537 31.0721C36.0437 31.0721 35.1753 32.0307 35.0701 32.7371C35.062 32.7764 35.0701 32.8169 35.0701 32.8585V38.286C35.0701 40.0562 34.1185 41.8438 31.9968 41.8438H27.4632C26.8064 41.8172 26.8064 41.5142 26.8064 41.3859C26.8064 41.2737 26.8966 41.1604 27.1197 40.9083C27.5418 40.432 28.1812 39.7128 28.1812 38.1357C28.1812 35.8867 26.3636 33.6182 22.3005 33.6182C18.7843 33.6182 16.421 35.4335 16.421 38.1357C16.421 39.7128 17.0592 40.432 17.4824 40.9083C17.7044 41.1592 17.7958 41.2726 17.7958 41.3859C17.7958 41.5154 17.7958 41.8183 17.1621 41.8438H10.0986C8.11331 41.8438 6.16388 39.9706 6.16388 38.0628V33.343C6.18931 32.6828 6.48878 32.6828 6.61713 32.6828C6.75125 32.6828 6.98713 32.8782 7.23803 33.0852C7.81384 33.5627 8.68681 34.2842 10.2478 34.2842C12.7418 34.2842 15.4139 31.7462 15.4139 27.9688C15.4139 24.2132 12.7337 22.1875 10.2108 22.1875C8.66138 22.1875 7.80691 22.8442 7.2415 23.2802C6.98481 23.4779 6.76281 23.6478 6.61713 23.6478C6.48994 23.6478 6.19047 23.6478 6.16388 23.0107V18.7188C6.16388 16.6745 8.23819 15.25 10.0986 15.25H17.1691L17.2234 15.2477C18.6514 15.1945 18.9508 14.4129 18.9508 13.7677C18.9508 13.2046 18.6306 12.8427 18.3473 12.5236C17.968 12.0969 17.5772 11.6564 17.5772 10.5175C17.5772 8.50675 19.4954 7.15625 22.3514 7.15625C25.19 7.15625 27.0249 8.47553 27.0249 10.5175C27.0249 11.6552 26.633 12.0969 26.2549 12.5236Z" fill="#E9EBEB"/>
</svg>
