<svg width="50" height="50" viewBox="0 0 50 50" fill="none" xmlns="http://www.w3.org/2000/svg">
<rect x="0.5" y="0.5" width="49" height="49" rx="9.5" stroke="#E9EBEB"/>
<path d="M18.2084 8.45837V36.6664C18.2084 37.9592 17.6948 39.1994 16.7806 40.1136C15.8664 41.0279 14.6263 41.5414 13.3334 41.5414C12.0404 41.5414 10.8003 41.0279 9.88611 40.1136C8.97197 39.1994 8.45837 37.9592 8.45837 36.6664V8.45837H18.2084Z" stroke="#E9EBEB" stroke-width="0.25"/>
<path d="M13.3334 41.6667C14.6595 41.6667 15.9312 41.1399 16.8689 40.2022M13.3334 41.6667C12.0073 41.6667 10.7355 41.1399 9.79784 40.2022M13.3334 41.6667H41.6667V31.6667H25.4042M13.3334 41.6667C12.6767 41.6667 12.0264 41.5379 11.4198 41.2866C10.8131 41.0353 10.2621 40.6666 9.79784 40.2022M13.3334 41.6667C13.9901 41.6667 14.6403 41.5379 15.247 41.2866C15.8537 41.0353 16.4046 40.6666 16.8689 40.2022M16.8689 40.2022C17.8066 39.2646 18.3334 37.9928 18.3334 36.6667V24.5959M16.8689 40.2022L25.4042 31.6667M18.3334 24.5959V8.33337H8.33337V36.6667C8.33337 37.9928 8.86016 39.2646 9.79784 40.2022M18.3334 24.5959L34.1792 8.75004L34.5709 8.33337L41.6542 15.4167L25.4042 31.6667" stroke="#E9EBEB" stroke-linecap="round" stroke-linejoin="round"/>
<path d="M16.8693 40.2025L41.6543 15.4167L34.5709 8.33337L18.3334 24.5959" stroke="#E9EBEB" stroke-linecap="round" stroke-linejoin="round"/>
<path d="M25.4042 31.6667H41.6667V41.6667H15.4167" stroke="#E9EBEB" stroke-linecap="round" stroke-linejoin="round"/>
<path d="M25.4042 31.6667H41.6667V41.6667H15.4167" stroke="#E9EBEB" stroke-linecap="round" stroke-linejoin="round"/>
<path d="M13.3334 41.6667C14.6595 41.6667 15.9312 41.1399 16.8689 40.2022C17.8066 39.2646 18.3334 37.9928 18.3334 36.6667V8.33337H8.33337V36.6667C8.33337 37.9928 8.86016 39.2646 9.79784 40.2022C10.7355 41.1399 12.0073 41.6667 13.3334 41.6667Z" stroke="#E9EBEB" stroke-linecap="round" stroke-linejoin="round"/>
</svg>
