<svg width="50" height="50" viewBox="0 0 50 50" fill="none" xmlns="http://www.w3.org/2000/svg">
<rect x="0.5" y="0.5" width="49" height="49" rx="9.5" stroke="#E9EBEB"/>
<path d="M25 6.29163V3.16663M25 6.29163C23.0416 6.29163 15.6833 14.1937 14.525 24.425M25 6.29163C26.9583 6.29163 34.3166 14.1937 35.475 24.425M25 6.29163C35.2854 6.29163 43.8645 13.45 45.8333 22.9583C42.9416 25.4583 37.7229 24.9791 35.475 24.425M25 6.29163C14.7145 6.29163 6.13538 13.45 4.16663 22.9583C7.05829 25.4583 12.277 24.9791 14.525 24.425M14.525 24.425C17.7288 26.2047 21.335 27.1343 25 27.125C28.6649 27.1343 32.2712 26.2047 35.475 24.425" stroke="#E9EBEB" stroke-width="1.5" stroke-linecap="round" stroke-linejoin="round"/>
<path d="M25 27.125V41.7083C25 42.5371 24.6708 43.332 24.0847 43.918C23.4987 44.5041 22.7038 44.8333 21.875 44.8333C21.0462 44.8333 20.2513 44.5041 19.6653 43.918C19.0792 43.332 18.75 42.5371 18.75 41.7083V40.6667" stroke="#E9EBEB" stroke-width="1.5" stroke-linecap="round" stroke-linejoin="round"/>
</svg>
